<svg xmlns="http://www.w3.org/2000/svg" version="1.1" xmlns:xlink="http://www.w3.org/1999/xlink" xmlns:svgjs="http://svgjs.dev/svgjs" width="1000" height="1000" viewBox="0 0 1000 1000"><rect width="1000" height="1000" fill="#ffffff"></rect><g transform="matrix(0.7,0,0,0.7,149.84897959183667,150.19913061224486)"><svg viewBox="0 0 343 343" data-background-color="#ffffff" preserveAspectRatio="xMidYMid meet" height="999" width="1000" xmlns="http://www.w3.org/2000/svg" xmlns:xlink="http://www.w3.org/1999/xlink"><g id="tight-bounds" transform="matrix(1,0,0,1,0.0740000000000407,0.07400000000001228)"><svg viewBox="0 0 342.85155851775386 342.85155851775386" height="342.85155851775386" width="342.85155851775386"><g><svg></svg></g><g><svg viewBox="0 0 342.85155851775386 342.85155851775386" height="342.85155851775386" width="342.85155851775386"><g><path d="M0 171.426c0-94.676 76.75-171.426 171.426-171.426 94.676 0 171.426 76.75 171.426 171.426 0 94.676-76.75 171.426-171.426 171.426-94.676 0-171.426-76.75-171.426-171.426zM171.426 338.77c92.422 0 167.344-74.923 167.344-167.344 0-92.422-74.923-167.344-167.344-167.344-92.422 0-167.344 74.923-167.344 167.344 0 92.422 74.923 167.344 167.344 167.344z" data-fill-palette-color="tertiary" fill="#010c80" stroke="transparent"></path><ellipse rx="164.56874808852186" ry="164.56874808852186" cx="171.42577925887693" cy="171.42577925887693" fill="#010c80" stroke="transparent" stroke-width="0" fill-opacity="1" data-fill-palette-color="tertiary"></ellipse></g><g transform="matrix(1,0,0,1,64.84655864529837,112.18004155584524)"><svg viewBox="0 0 213.1584412271571 118.49147540606337" height="118.49147540606337" width="213.1584412271571"><g><svg viewBox="0 0 213.1584412271571 118.49147540606337" height="118.49147540606337" width="213.1584412271571"><g><svg viewBox="0 0 213.1584412271571 118.49147540606337" height="118.49147540606337" width="213.1584412271571"><g transform="matrix(1,0,0,1,0,73.23248544318095)"><svg viewBox="0 0 213.1584412271571 45.258989962882424" height="45.258989962882424" width="213.1584412271571"><g id="textblocktransform"><svg viewBox="0 0 213.1584412271571 45.258989962882424" height="45.258989962882424" width="213.1584412271571" id="textblock"><g><svg viewBox="0 0 213.1584412271571 45.258989962882424" height="45.258989962882424" width="213.1584412271571"><g transform="matrix(1,0,0,1,0,0)"><svg width="213.1584412271571" viewBox="1.2699999809265137 -33.939998626708984 209.94000244140625 44.57999801635742" height="45.258989962882424" data-palette-color="#ffffff"><path d="M9.28-32.03L9.28-32.03Q10.25-32.03 12.04-32.15 13.82-32.28 14.4-32.32L14.4-32.32Q14.89-30.76 18.41-23.12 21.92-15.48 23.63-11.23L23.63-11.23 23.73-11.23Q23.83-11.23 23.83-11.28L23.83-11.28Q27.59-20.61 29.79-26.66L29.79-26.66 31.4-32.13Q32.28-32.03 35.35-32.03L35.35-32.03Q35.64-32.03 41.5-32.32L41.5-32.32Q41.7-32.03 41.7-31.54L41.7-31.54Q41.7-30.52 41.46-30.52L41.46-30.52 41.41-30.52Q40.19-30.52 39.36-29.93L39.36-29.93Q38.62-29.39 38.67-27.93L38.67-27.93Q38.77-25.98 39.16-17.82 39.55-9.67 39.65-7.42L39.65-7.42Q39.79-4.44 40.38-2.93L40.38-2.93Q40.58-2.49 41.67-2.05 42.77-1.61 43.21-1.61L43.21-1.61Q43.41-1.61 43.41-0.63L43.41-0.63Q43.41-0.1 43.31 0.2L43.31 0.2Q42.77 0.15 40.58-0.02 38.38-0.2 37.11-0.2L37.11-0.2Q35.79-0.2 33.25-0.02 30.71 0.15 30.03 0.2L30.03 0.2Q29.79-0.05 29.79-0.59L29.79-0.59Q29.79-1.61 29.93-1.61L29.93-1.61Q30.47-1.61 31.59-2.05 32.71-2.49 32.96-2.98L32.96-2.98Q33.35-3.71 33.35-4.35L33.35-4.35Q33.35-5.47 33.25-7.23L33.25-7.23 32.86-19.63Q32.67-22.9 32.47-22.9L32.47-22.9Q32.37-22.9 32.23-22.56L32.23-22.56 23.78-1.51Q23.58-1.03 23-0.46 22.41 0.1 21.83 0.1L21.83 0.1Q21.68 0.1 21.39 0L21.39 0 10.64-24.12 9.81-5.32Q9.81-3.91 9.86-3.56L9.86-3.56Q10.01-2.93 12.01-2.27 14.01-1.61 14.65-1.61L14.65-1.61Q14.84-1.61 14.84-0.63L14.84-0.63Q14.84-0.1 14.75 0.2L14.75 0.2Q14.36 0.2 11.82 0 9.28-0.2 8.01-0.2 6.74-0.2 4.49-0.02 2.25 0.15 1.46 0.2L1.46 0.2Q1.27 0 1.27-0.63L1.27-0.63Q1.27-1.56 1.42-1.56L1.42-1.56Q2.29-1.56 4.27-2.29 6.25-3.03 6.35-4.05L6.35-4.05Q6.45-5.18 6.54-6.4L6.54-6.4Q6.69-8.94 6.88-13.89 7.08-18.85 7.23-23.44 7.37-28.03 7.42-28.66L7.42-28.66Q7.42-29.2 7.28-29.54L7.28-29.54Q7.13-29.93 5.71-30.25 4.3-30.57 3.66-30.57L3.66-30.57Q3.47-30.57 3.47-31.59L3.47-31.59Q3.47-32.13 3.66-32.32L3.66-32.32Q4.35-32.28 6.18-32.15 8.01-32.03 9.28-32.03ZM52.05-21.24L52.05-21.24Q53.12-21.24 55.52-21.41 57.91-21.58 58.44-21.63L58.44-21.63Q58.59-21.19 58.59-20.61L58.59-20.61Q58.59-19.82 58.4-19.82L58.4-19.82Q57.76-19.82 56.56-19.43 55.37-19.04 55.37-18.55L55.37-18.55 55.42-18.12Q55.52-17.33 59.23-8.59L59.23-8.59Q62.55-15.77 62.84-16.5L62.84-16.5Q63.13-17.19 63.13-17.97L63.13-17.97Q63.13-18.26 62.86-18.65 62.6-19.04 61.77-19.43 60.94-19.82 59.67-19.82L59.67-19.82Q59.47-19.82 59.47-20.7L59.47-20.7Q59.47-21.34 59.57-21.63L59.57-21.63Q60.15-21.58 62.47-21.41 64.79-21.24 65.96-21.24L65.96-21.24Q66.99-21.24 68.7-21.41 70.41-21.58 71.19-21.63L71.19-21.63Q71.38-21.24 71.38-20.8L71.38-20.8Q71.38-19.82 71.19-19.82L71.19-19.82Q70.46-19.82 69.02-19.34 67.58-18.85 67.09-17.87L67.09-17.87 58.01 1.81Q53.95 10.64 48.53 10.64L48.53 10.64Q47.07 10.64 46.16 9.86 45.26 9.08 45.26 8.06L45.26 8.06Q45.26 6.54 46.38 5.76L46.38 5.76Q52.59 5.76 54.44 1.95L54.44 1.95Q55.56-0.44 55.95-1.27L55.95-1.27 48.68-17.38 48.44-17.97Q47.95-18.99 46.95-19.41 45.94-19.82 45.21-19.82L45.21-19.82Q45.02-19.82 45.02-20.56L45.02-20.56Q45.02-21.53 45.11-21.63L45.11-21.63Q45.51-21.63 48.19-21.44 50.88-21.24 52.05-21.24ZM102.48-8.59L102.48-8.59Q102.48-15.38 96.48-15.38L96.48-15.38Q94.87-15.38 93.99-15.14L93.99-15.14Q93.45-14.94 93.45-14.7L93.45-14.7 93.45-3.71Q93.45-3.27 93.79-3.03L93.79-3.03Q94.28-2.69 97.45-2.69L97.45-2.69Q102.48-2.69 102.48-8.59ZM86.61-6.98L86.61-6.98 86.61-25.44Q86.61-28.13 86.32-29.25L86.32-29.25Q86.17-29.64 84.88-30.13 83.59-30.62 83.05-30.62L83.05-30.62Q82.85-30.62 82.85-31.49L82.85-31.49Q82.85-32.28 83-32.42L83-32.42Q86.91-32.18 90.18-32.18L90.18-32.18Q91.79-32.18 97.55-32.28L97.55-32.28Q99.36-32.28 101.21-31.81 103.07-31.35 104.8-30.37 106.54-29.39 107.61-27.64 108.68-25.88 108.68-23.58L108.68-23.58Q108.68-21.04 107.22-19.38 105.75-17.72 104.63-17.29L104.63-17.29Q104.24-17.14 104.39-16.99L104.39-16.99Q106.1-16.7 107.95-14.58 109.81-12.45 109.81-9.13L109.81-9.13Q109.81-4.93 106.39-2.42 102.97 0.1 97.4 0L97.4 0 90.23-0.1Q88.76-0.1 86.98-0.02 85.2 0.05 84.12 0.1L84.12 0.1 83.1 0.2Q82.9 0 82.9-0.63L82.9-0.63Q82.9-1.61 83.1-1.61L83.1-1.61Q83.68-1.61 84.93-1.95 86.17-2.29 86.32-2.69L86.32-2.69Q86.61-3.81 86.61-6.98ZM98.77-18.55L98.77-18.55Q99.5-18.95 99.89-19.29 100.29-19.63 100.75-20.73 101.21-21.83 101.21-23.54L101.21-23.54Q101.21-29.59 96.72-29.59L96.72-29.59Q94.57-29.59 93.89-29.39L93.89-29.39Q93.45-29.3 93.45-28.81L93.45-28.81 93.45-24.37 93.45-18.8Q93.45-18.12 95.99-18.12L95.99-18.12Q97.89-18.12 98.77-18.55ZM123.18-19.14L123.18-19.14Q121.77-19.14 120.84-18.02 119.91-16.89 119.62-15.45 119.33-14.01 119.33-12.26L119.33-12.26Q119.33-2.34 124.36-2.34L124.36-2.34Q126.41-2.34 127.36-4.35 128.31-6.35 128.31-9.03L128.31-9.03Q128.31-19.14 123.18-19.14ZM115.74-18.6Q119.08-21.83 123.87-21.83 128.65-21.83 132-18.6 135.34-15.38 135.34-10.74 135.34-6.1 132.02-2.88 128.7 0.34 123.87 0.34L123.87 0.34Q119.08 0.34 115.74-2.88 112.39-6.1 112.39-10.74 112.39-15.38 115.74-18.6ZM148.72-19.14L148.72-19.14Q147.3-19.14 146.37-18.02 145.45-16.89 145.15-15.45 144.86-14.01 144.86-12.26L144.86-12.26Q144.86-2.34 149.89-2.34L149.89-2.34Q151.94-2.34 152.89-4.35 153.84-6.35 153.84-9.03L153.84-9.03Q153.84-19.14 148.72-19.14ZM141.27-18.6Q144.62-21.83 149.4-21.83 154.19-21.83 157.53-18.6 160.88-15.38 160.88-10.74 160.88-6.1 157.56-2.88 154.24 0.34 149.4 0.34L149.4 0.34Q144.62 0.34 141.27-2.88 137.93-6.1 137.93-10.74 137.93-15.38 141.27-18.6ZM186.07-18.65L186.07-18.65Q182.6-16.65 179.38-13.33L179.38-13.33Q180.8-11.82 183.04-9.23 185.29-6.64 186.78-4.98 188.27-3.32 188.85-2.88L188.85-2.88Q189.49-2.34 190.51-1.98 191.54-1.61 191.98-1.61L191.98-1.61Q192.22-1.61 192.22-0.68L192.22-0.68Q192.22-0.05 192.12 0.15L192.12 0.15Q186.26-0.15 185.97-0.15L185.97-0.15Q184.8-0.15 182.26 0.02 179.72 0.2 179.48 0.2L179.48 0.2Q179.28 0 179.28-0.81 179.28-1.61 179.48-1.61L179.48-1.61Q179.97-1.61 180.6-1.81 181.24-2 181.24-2.25L181.24-2.25Q181.24-2.34 181.19-2.39L181.19-2.39 174.06-10.55 173.52-10.4 173.52-7.28Q173.52-4.15 173.86-2.83L173.86-2.83Q173.96-2.49 175.23-2.05 176.5-1.61 176.94-1.61L176.94-1.61Q177.08-1.61 177.11-0.81 177.13 0 177.04 0.2L177.04 0.2Q176.5 0.15 173.98-0.02 171.47-0.2 170.35-0.2L170.35-0.2Q169.17-0.2 166.68-0.02 164.19 0.15 163.66 0.2L163.66 0.2Q163.46 0 163.46-0.81 163.46-1.61 163.66-1.61L163.66-1.61Q164.19-1.61 165.46-2.05 166.73-2.49 166.83-2.83L166.83-2.83Q167.17-4.3 167.17-6.54L167.17-6.54 167.17-25.93Q167.17-28.22 166.93-29.44L166.93-29.44Q166.68-30.22 164.39-30.22L164.39-30.22 163.95-30.22Q163.66-30.22 163.66-31.2L163.66-31.2Q163.66-32.03 163.95-32.03L163.95-32.03Q165.46-32.18 167-32.42 168.54-32.67 169.61-32.91 170.69-33.15 171.54-33.4 172.4-33.64 172.89-33.79L172.89-33.79 173.37-33.94 173.47-33.94Q173.67-33.94 173.86-33.64 174.06-33.35 174.11-33.11L174.11-33.11Q173.52-30.91 173.52-28.17L173.52-28.17 173.52-12.65Q174.84-12.99 175.18-13.28L175.18-13.28Q175.96-13.96 176.86-14.72 177.77-15.48 178.23-15.89 178.7-16.31 179.26-16.77 179.82-17.24 180.06-17.5 180.31-17.77 180.55-18.04 180.8-18.31 180.87-18.53 180.94-18.75 180.94-18.95L180.94-18.95Q180.94-19.38 180.45-19.53 179.97-19.68 179.38-19.7 178.79-19.73 178.7-19.78L178.7-19.78Q178.6-20.12 178.6-20.8 178.6-21.48 178.79-21.53L178.79-21.53Q182.31-21.48 184.36-21.48L184.36-21.48Q187.24-21.48 189.44-21.58L189.44-21.58Q189.63-21.48 189.66-21.02 189.68-20.56 189.63-20.17 189.58-19.78 189.49-19.78L189.49-19.78Q187.97-19.78 186.07-18.65ZM203.5-21.92L203.5-21.92Q207.8-21.92 209.85-20.95L209.85-20.95Q210.33-18.7 210.33-14.89L210.33-14.89Q210.33-14.45 209.7-14.45L209.7-14.45Q208.19-14.45 208.09-14.84L208.09-14.84Q207.65-16.89 206.6-18.07 205.55-19.24 203.25-19.24L203.25-19.24Q202.18-19.24 201.5-18.73 200.81-18.21 200.81-17.24L200.81-17.24Q200.81-16.11 201.79-15.31 202.77-14.5 204.67-13.57L204.67-13.57Q205.99-12.94 206.75-12.5 207.5-12.06 208.75-11.11 209.99-10.16 210.6-8.89 211.21-7.62 211.21-6.05L211.21-6.05Q211.21-2.83 208.75-1.17 206.28 0.49 202.47 0.49L202.47 0.49Q200.76 0.49 198.66-0.05 196.56-0.59 195.64-1.37L195.64-1.37Q195.05-4.74 195.05-7.32L195.05-7.32Q195.25-7.47 195.78-7.47L195.78-7.47Q197.35-7.47 197.39-7.03L197.39-7.03Q198.22-2.2 202.67-2.2L202.67-2.2Q203.84-2.2 204.62-2.73 205.4-3.27 205.4-4.25L205.4-4.25Q205.4-5.47 204.35-6.3 203.3-7.13 200.57-8.5L200.57-8.5Q197.74-9.86 196.37-11.5 195-13.13 195-15.53L195-15.53Q195-18.85 197.54-20.39 200.08-21.92 203.5-21.92Z" opacity="1" transform="matrix(1,0,0,1,0,0)" fill="#ffffff" class="wordmark-text-0" data-fill-palette-color="quaternary" id="text-0"></path></svg></g></svg></g></svg></g></svg></g><g transform="matrix(1,0,0,1,83.46947580168774,0)"><svg viewBox="0 0 46.21948962378163 62.547924128703514" height="62.547924128703514" width="46.21948962378163"><g><svg version="1.1" xmlns="http://www.w3.org/2000/svg" xmlns:xlink="http://www.w3.org/1999/xlink" x="0" y="0" viewBox="0.00021628569811582565 0.0010000000474974513 73.89378356933594 99.9990005493164" enable-background="new 0 0 73.894 100" xml:space="preserve" width="46.21948962378163" height="62.547924128703514" class="icon-icon-0" data-fill-palette-color="quaternary" id="icon-0"><path fill="#ffffff" d="M68.759 0.001C57.947 0.087 0.009 0.112 0.009 0.112-0.062 40.059 0.32 69.361 0.345 94.308L3.916 100h69.978V8.259h-2.12c-1.046-1.082-3.714-5.468-3.684-5.468 0.254-0.001 0.304 0.035 2.79 0C70.88 2.791 69.134 0.483 68.759 0.001L68.759 0.001zM28.022 2.792c13.441-0.036 28.818-0.054 36.496 0 0 0.053 3.412 5.219 3.683 5.469L6.482 7.813l-3.46-4.911C3.022 2.903 14.582 2.821 28.022 2.792L28.022 2.792zM10.835 11.497h5.134v86.049h-5.134V11.497z" data-fill-palette-color="quaternary"></path></svg></g></svg></g><g></g></svg></g></svg></g></svg></g></svg></g><defs></defs></svg><rect width="342.85155851775386" height="342.85155851775386" fill="none" stroke="none" visibility="hidden"></rect></g></svg></g></svg>